<svg width="333" height="214" viewBox="0 0 333 214" fill="none" xmlns="http://www.w3.org/2000/svg">
    <path d="M32.2901 1H286.71C287.848 1 288.939 1.44394 289.743 2.23415C290.548 3.02437 291 4.09613 291 5.21366V17H28V5.21366C28 4.09613 28.452 3.02437 29.2565 2.23415C30.0611 1.44394 31.1523 1 32.2901 1Z" fill="black" stroke="#263238" stroke-linecap="round" stroke-linejoin="round"/>
    <path d="M291.09 18.07H28.38V202.94H291.09V18.07Z" fill="white" stroke="#263238" stroke-linecap="round" stroke-linejoin="round"/>
    <path d="M287.35 9C287.35 9.79113 287.115 10.5645 286.676 11.2223C286.236 11.8801 285.612 12.3928 284.881 12.6955C284.15 12.9983 283.346 13.0775 282.57 12.9231C281.794 12.7688 281.081 12.3878 280.522 11.8284C279.962 11.269 279.581 10.5563 279.427 9.78036C279.273 9.00443 279.352 8.20017 279.654 7.46926C279.957 6.73836 280.47 6.11364 281.128 5.67412C281.786 5.23459 282.559 5 283.35 5C284.411 5 285.428 5.42142 286.178 6.17157C286.929 6.92172 287.35 7.93913 287.35 9Z" fill="white" stroke="#263238" stroke-linecap="round" stroke-linejoin="round"/>
    <path d="M273.19 9C273.19 9.79113 272.955 10.5645 272.516 11.2223C272.076 11.8801 271.452 12.3928 270.721 12.6955C269.99 12.9983 269.186 13.0775 268.41 12.9231C267.634 12.7688 266.921 12.3878 266.362 11.8284C265.802 11.269 265.421 10.5563 265.267 9.78036C265.113 9.00443 265.192 8.20017 265.494 7.46926C265.797 6.73836 266.31 6.11364 266.968 5.67412C267.626 5.23459 268.399 5 269.19 5C270.251 5 271.268 5.42142 272.018 6.17157C272.769 6.92172 273.19 7.93913 273.19 9Z" fill="white" stroke="#263238" stroke-linecap="round" stroke-linejoin="round"/>
    <path d="M259 9C259 9.79113 258.765 10.5645 258.326 11.2223C257.886 11.8801 257.262 12.3928 256.531 12.6955C255.8 12.9983 254.996 13.0775 254.22 12.9231C253.444 12.7688 252.731 12.3878 252.172 11.8284C251.612 11.269 251.231 10.5563 251.077 9.78036C250.923 9.00443 251.002 8.20017 251.304 7.46926C251.607 6.73836 252.12 6.11364 252.778 5.67412C253.436 5.23459 254.209 5 255 5C256.061 5 257.078 5.42142 257.828 6.17157C258.579 6.92172 259 7.93913 259 9Z" fill="white" stroke="#263238" stroke-linecap="round" stroke-linejoin="round"/>
    <path d="M283.13 26H272.73" stroke="#263238" stroke-width="2" stroke-linecap="round" stroke-linejoin="round"/>
    <path d="M283.13 30.22H272.73" stroke="#263238" stroke-width="2" stroke-linecap="round" stroke-linejoin="round"/>
    <path d="M283.13 34.44H272.73" stroke="#263238" stroke-width="2" stroke-linecap="round" stroke-linejoin="round"/>
    <path d="M46.57 135.08H125.3" stroke="#263238" stroke-width="2" stroke-linecap="round" stroke-linejoin="round"/>
    <path d="M46.57 141.29H125.3" stroke="#263238" stroke-width="2" stroke-linecap="round" stroke-linejoin="round"/>
    <path d="M46.57 147.61H108.65" stroke="#263238" stroke-width="2" stroke-linecap="round" stroke-linejoin="round"/>
    <path d="M213.52 20.15V20.65" stroke="#263238" stroke-linecap="round" stroke-linejoin="round"/>
    <path d="M213.52 23.65V197.88" stroke="#263238" stroke-linecap="round" stroke-linejoin="round" stroke-dasharray="1 3"/>
    <path d="M213.52 199.38V199.88" stroke="#263238" stroke-linecap="round" stroke-linejoin="round"/>
    <path d="M31.54 161.48H32.04" stroke="#263238" stroke-linecap="round" stroke-linejoin="round"/>
    <path d="M35.03 161.48H285.07" stroke="#263238" stroke-linecap="round" stroke-linejoin="round" stroke-dasharray="1 2.99"/>
    <path d="M286.57 161.48H287.07" stroke="#263238" stroke-linecap="round" stroke-linejoin="round"/>
    <path d="M215.25 159.75H211.8V163.2H215.25V159.75Z" fill="white" stroke="#263238" stroke-linecap="round" stroke-linejoin="round"/>
    <path d="M199.75 128.34H153.69" stroke="#263238" stroke-linecap="round" stroke-linejoin="round"/>
    <path d="M200.64 149.64C200.64 149.64 200.64 128.23 176.72 128.23C152.8 128.23 152.76 149.64 152.76 149.64" stroke="#263238" stroke-linecap="round" stroke-linejoin="round"/>
    <path d="M200.64 151.66C201.756 151.66 202.66 150.756 202.66 149.64C202.66 148.524 201.756 147.62 200.64 147.62C199.524 147.62 198.62 148.524 198.62 149.64C198.62 150.756 199.524 151.66 200.64 151.66Z" fill="black" stroke="#263238" stroke-linecap="round" stroke-linejoin="round"/>
    <path d="M150.76 149.64C150.76 149.244 150.877 148.858 151.097 148.529C151.317 148.2 151.629 147.944 151.995 147.792C152.36 147.641 152.762 147.601 153.15 147.678C153.538 147.756 153.895 147.946 154.174 148.226C154.454 148.506 154.644 148.862 154.722 149.25C154.799 149.638 154.759 150.04 154.608 150.405C154.456 150.771 154.2 151.083 153.871 151.303C153.542 151.523 153.156 151.64 152.76 151.64C152.23 151.64 151.721 151.429 151.346 151.054C150.971 150.679 150.76 150.17 150.76 149.64Z" fill="black" stroke="#263238" stroke-linecap="round" stroke-linejoin="round"/>
    <path d="M198.87 130H202.41V126.46H198.87V130Z" fill="black" stroke="#263238" stroke-linecap="round" stroke-linejoin="round"/>
    <path d="M174.95 130H178.49V126.46H174.95V130Z" fill="black" stroke="#263238" stroke-linecap="round" stroke-linejoin="round"/>
    <path d="M151.03 130H154.57V126.46H151.03V130Z" fill="black" stroke="#263238" stroke-linecap="round" stroke-linejoin="round"/>
    <path d="M75.19 63.97V56.89L69.9 56.44C69.586 55.3335 69.1464 54.2666 68.59 53.26L72.01 49.2L67.01 44.2L62.94 47.62C61.9369 47.0563 60.8691 46.6164 59.76 46.31L59.3 41.01H52.24L51.78 46.31C50.6736 46.6151 49.609 47.0551 48.61 47.62L44.54 44.2L39.54 49.2L42.96 53.26C42.3994 54.2646 41.9597 55.332 41.65 56.44L36.35 56.89V63.97L41.65 64.42C41.9614 65.5274 42.4011 66.5946 42.96 67.6L39.54 71.66L44.54 76.66L48.61 73.24C49.6027 73.8034 50.6605 74.2434 51.76 74.55L52.22 79.85H59.29L59.75 74.55C60.8557 74.2428 61.9201 73.803 62.92 73.24L66.99 76.66L71.99 71.66L68.57 67.6C69.1247 66.5926 69.5642 65.5258 69.88 64.42L75.19 63.97ZM55.76 68.65C54.1342 68.65 52.545 68.1679 51.1932 67.2647C49.8414 66.3614 48.7879 65.0777 48.1657 63.5757C47.5436 62.0737 47.3808 60.4209 47.698 58.8264C48.0151 57.2318 48.798 55.7672 49.9476 54.6176C51.0972 53.468 52.5618 52.6851 54.1564 52.3679C55.7509 52.0508 57.4037 52.2136 58.9057 52.8357C60.4077 53.4579 61.6915 54.5114 62.5947 55.8632C63.4979 57.215 63.98 58.8042 63.98 60.43C63.98 62.6101 63.114 64.7009 61.5724 66.2424C60.0309 67.784 57.9401 68.65 55.76 68.65Z" fill="black" stroke="#263238" stroke-linecap="round" stroke-linejoin="round"/>
    <path d="M99.23 79.83V74.99L95.6 74.67C95.3912 73.9137 95.0924 73.1851 94.71 72.5L97.05 69.72L93.62 66.3L90.84 68.64C90.1532 68.2585 89.4252 67.9566 88.67 67.74L88.36 64.1H83.52L83.2 67.73C82.4448 67.9466 81.7168 68.2485 81.03 68.63L78.25 66.29L74.82 69.71L77.17 72.49C76.7803 73.1728 76.4779 73.9018 76.27 74.66L72.64 74.98V79.82L76.27 80.13C76.4761 80.8888 76.7785 81.6181 77.17 82.3L74.82 85.1L78.25 88.52L81.03 86.18C81.7168 86.5615 82.4448 86.8634 83.2 87.08L83.52 90.7H88.36L88.67 87.08C89.4252 86.8634 90.1532 86.5615 90.84 86.18L93.62 88.52L97.05 85.1L94.76 82.31C95.1442 81.6257 95.4431 80.897 95.65 80.14L99.23 79.83ZM85.94 83.03C84.8257 83.032 83.7358 82.7032 82.8084 82.0853C81.881 81.4675 81.1579 80.5883 80.7305 79.5591C80.3031 78.53 80.1908 77.3971 80.4077 76.3041C80.6246 75.2111 81.161 74.207 81.949 73.419C82.737 72.631 83.7411 72.0946 84.8341 71.8777C85.9272 71.6608 87.06 71.7731 88.0891 72.2005C89.1183 72.6278 89.9975 73.351 90.6154 74.2784C91.2332 75.2058 91.562 76.2956 91.56 77.41C91.5574 78.8997 90.9644 80.3276 89.911 81.381C88.8577 82.4344 87.4297 83.0273 85.94 83.03Z" fill="black" stroke="#263238" stroke-linecap="round" stroke-linejoin="round"/>
    <path d="M223.4 173.24H262.13" stroke="#263238" stroke-width="2" stroke-linecap="round" stroke-linejoin="round"/>
    <path d="M223.4 179.45H262.13" stroke="#263238" stroke-width="2" stroke-linecap="round" stroke-linejoin="round"/>
    <path d="M223.4 185.77H245.48" stroke="#263238" stroke-width="2" stroke-linecap="round" stroke-linejoin="round"/>
    <path d="M172.37 188.35H151.98C150.654 188.35 149.382 187.823 148.444 186.886C147.507 185.948 146.98 184.676 146.98 183.35C146.98 182.024 147.507 180.752 148.444 179.814C149.382 178.877 150.654 178.35 151.98 178.35H172.37C173.696 178.35 174.968 178.877 175.906 179.814C176.843 180.752 177.37 182.024 177.37 183.35C177.37 184.676 176.843 185.948 175.906 186.886C174.968 187.823 173.696 188.35 172.37 188.35Z" fill="black" stroke="#263238" stroke-linecap="round" stroke-linejoin="round"/>
    <path d="M210.37 188.35H189.98C188.654 188.35 187.382 187.823 186.444 186.886C185.507 185.948 184.98 184.676 184.98 183.35C184.98 182.024 185.507 180.752 186.444 179.814C187.382 178.877 188.654 178.35 189.98 178.35H210.37C211.696 178.35 212.968 178.877 213.906 179.814C214.843 180.752 215.37 182.024 215.37 183.35C215.37 184.676 214.843 185.948 213.906 186.886C212.968 187.823 211.696 188.35 210.37 188.35Z" fill="black" stroke="#263238" stroke-linecap="round" stroke-linejoin="round"/>
    <path d="M269.47 81.07H226.23V124.31H269.47V81.07Z" fill="white" stroke="#263238" stroke-linecap="round" stroke-linejoin="round"/>
    <path d="M226.23 81.07L269.47 124.31" stroke="#263238" stroke-linecap="round" stroke-linejoin="round"/>
    <path d="M269.47 81.07L226.23 124.31" stroke="#263238" stroke-linecap="round" stroke-linejoin="round"/>
    <path d="M88.56 110.01V120.1L84.11 124.56H74.02V110.01H88.56Z" fill="white" stroke="#263238" stroke-linecap="round" stroke-linejoin="round"/>
    <path d="M88.56 120.1L84.11 124.56V120.1H88.56Z" fill="white" stroke="#263238" stroke-linecap="round" stroke-linejoin="round"/>
    <path d="M100.54 37V47.09L96.09 51.55H86V37H100.54Z" fill="white" stroke="#263238" stroke-linecap="round" stroke-linejoin="round"/>
    <path d="M100.54 47.09L96.09 51.55V47.09H100.54Z" fill="white" stroke="#263238" stroke-linecap="round" stroke-linejoin="round"/>
    <path d="M237.54 30V40.09L233.09 44.55H223V30H237.54Z" fill="white" stroke="#263238" stroke-linecap="round" stroke-linejoin="round"/>
    <path d="M237.54 40.09L233.09 44.55V40.09H237.54Z" fill="white" stroke="#263238" stroke-linecap="round" stroke-linejoin="round"/>
    <path d="M331.66 145H278V178.63H331.66V145Z" fill="#263238" stroke="#263238" stroke-linecap="round" stroke-linejoin="round"/>
    <path d="M331.66 145H278V150.11H331.66V145Z" fill="black" stroke="#263238" stroke-linecap="round" stroke-linejoin="round"/>
    <path d="M283.47 154.42H297.19" stroke="white" stroke-linecap="round" stroke-linejoin="round"/>
    <path d="M290.33 158.25H314.07" stroke="white" stroke-linecap="round" stroke-linejoin="round"/>
    <path d="M287.3 161.82H294.29" stroke="white" stroke-linecap="round" stroke-linejoin="round"/>
    <path d="M290.33 166.03H306.32" stroke="white" stroke-linecap="round" stroke-linejoin="round"/>
    <path d="M283.47 169.85H297.19" stroke="white" stroke-linecap="round" stroke-linejoin="round"/>
    <path d="M54.66 179H1V212.63H54.66V179Z" fill="#263238" stroke="#263238" stroke-linecap="round" stroke-linejoin="round"/>
    <path d="M54.66 179H1V184.11H54.66V179Z" fill="black" stroke="#263238" stroke-linecap="round" stroke-linejoin="round"/>
    <path d="M6.48001 188.43H20.19" stroke="white" stroke-linecap="round" stroke-linejoin="round"/>
    <path d="M13.33 192.25H37.07" stroke="white" stroke-linecap="round" stroke-linejoin="round"/>
    <path d="M10.3 195.82H17.29" stroke="white" stroke-linecap="round" stroke-linejoin="round"/>
    <path d="M13.33 200.03H29.32" stroke="white" stroke-linecap="round" stroke-linejoin="round"/>
    <path d="M6.48001 203.86H20.19" stroke="white" stroke-linecap="round" stroke-linejoin="round"/>
</svg>
